# xmcd CD database file
# Copyright (C) 1993-1998 Ti Kan
# 
# Track frame offsets:
#     150
#     9842
#     18822
#     31075
#     41887
#     52227
#     62172
#     72812
#     81590
#     93637
# 
# Disc length: 1426 seconds
# 
# Revision: 1
# Processed by: cddbd v1.4b41PL1 Copyright (c) Steve Scherf et al.
# Submitted via: DiscPlay 4.0.4
# 
DISCID=7f05900a
DTITLE=Various Artist - Country Christmas Favorites  Vol. 2
DYEAR=1900
DGENRE=
TTITLE0=Joy To The World
TTITLE1=The Holly And The Ivy
TTITLE2=O Little Town Of Bethlehem
TTITLE3=God Rest Ye Merry Gentlemen
TTITLE4=The First Noel
TTITLE5=O Come All Ye Faithful
TTITLE6=We Three Kings
TTITLE7=Santa Claus Is Coming To Town
TTITLE8=Carol Of The Bells
TTITLE9=Silent Night
EXTD=
EXTT0=
EXTT1=
EXTT2=
EXTT3=
EXTT4=
EXTT5=
EXTT6=
EXTT7=
EXTT8=
EXTT9=
PLAYORDER=
